<svg id="visual" viewBox="0 0 960 540" width="960" height="540" xmlns="http://www.w3.org/2000/svg" xmlns:xlink="http://www.w3.org/1999/xlink" version="1.1"><rect x="0" y="0" width="960" height="540" fill="#F2E0D0"></rect><path d="M0 171L22.8 187.8C45.7 204.7 91.3 238.3 137 252.2C182.7 266 228.3 260 274 247.5C319.7 235 365.3 216 411.2 218.2C457 220.3 503 243.7 548.8 233.8C594.7 224 640.3 181 686 177.2C731.7 173.3 777.3 208.7 823 228.7C868.7 248.7 914.3 253.3 937.2 255.7L960 258L960 541L937.2 541C914.3 541 868.7 541 823 541C777.3 541 731.7 541 686 541C640.3 541 594.7 541 548.8 541C503 541 457 541 411.2 541C365.3 541 319.7 541 274 541C228.3 541 182.7 541 137 541C91.3 541 45.7 541 22.8 541L0 541Z" fill="#f2d9bb"></path><path d="M0 214L22.8 220C45.7 226 91.3 238 137 247.2C182.7 256.3 228.3 262.7 274 265.8C319.7 269 365.3 269 411.2 263.8C457 258.7 503 248.3 548.8 251.3C594.7 254.3 640.3 270.7 686 273.2C731.7 275.7 777.3 264.3 823 251C868.7 237.7 914.3 222.3 937.2 214.7L960 207L960 541L937.2 541C914.3 541 868.7 541 823 541C777.3 541 731.7 541 686 541C640.3 541 594.7 541 548.8 541C503 541 457 541 411.2 541C365.3 541 319.7 541 274 541C228.3 541 182.7 541 137 541C91.3 541 45.7 541 22.8 541L0 541Z" fill="#f2cda9"></path><path d="M0 247L22.8 246.5C45.7 246 91.3 245 137 245.3C182.7 245.7 228.3 247.3 274 261.2C319.7 275 365.3 301 411.2 302.2C457 303.3 503 279.7 548.8 280.5C594.7 281.3 640.3 306.7 686 314.5C731.7 322.3 777.3 312.7 823 299.2C868.7 285.7 914.3 268.3 937.2 259.7L960 251L960 541L937.2 541C914.3 541 868.7 541 823 541C777.3 541 731.7 541 686 541C640.3 541 594.7 541 548.8 541C503 541 457 541 411.2 541C365.3 541 319.7 541 274 541C228.3 541 182.7 541 137 541C91.3 541 45.7 541 22.8 541L0 541Z" fill="#f4c098"></path><path d="M0 347L22.8 344.3C45.7 341.7 91.3 336.3 137 328.7C182.7 321 228.3 311 274 309.8C319.7 308.7 365.3 316.3 411.2 319.3C457 322.3 503 320.7 548.8 312.5C594.7 304.3 640.3 289.7 686 282.7C731.7 275.7 777.3 276.3 823 279.2C868.7 282 914.3 287 937.2 289.5L960 292L960 541L937.2 541C914.3 541 868.7 541 823 541C777.3 541 731.7 541 686 541C640.3 541 594.7 541 548.8 541C503 541 457 541 411.2 541C365.3 541 319.7 541 274 541C228.3 541 182.7 541 137 541C91.3 541 45.7 541 22.8 541L0 541Z" fill="#f5b289"></path><path d="M0 335L22.8 334.2C45.7 333.3 91.3 331.7 137 342.5C182.7 353.3 228.3 376.7 274 378.8C319.7 381 365.3 362 411.2 350C457 338 503 333 548.8 337.7C594.7 342.3 640.3 356.7 686 365.5C731.7 374.3 777.3 377.7 823 379.5C868.7 381.3 914.3 381.7 937.2 381.8L960 382L960 541L937.2 541C914.3 541 868.7 541 823 541C777.3 541 731.7 541 686 541C640.3 541 594.7 541 548.8 541C503 541 457 541 411.2 541C365.3 541 319.7 541 274 541C228.3 541 182.7 541 137 541C91.3 541 45.7 541 22.8 541L0 541Z" fill="#f7a47d"></path><path d="M0 413L22.8 407.7C45.7 402.3 91.3 391.7 137 393.5C182.7 395.3 228.3 409.7 274 410C319.7 410.3 365.3 396.7 411.2 396C457 395.3 503 407.7 548.8 406.5C594.7 405.3 640.3 390.7 686 385.5C731.7 380.3 777.3 384.7 823 393.3C868.7 402 914.3 415 937.2 421.5L960 428L960 541L937.2 541C914.3 541 868.7 541 823 541C777.3 541 731.7 541 686 541C640.3 541 594.7 541 548.8 541C503 541 457 541 411.2 541C365.3 541 319.7 541 274 541C228.3 541 182.7 541 137 541C91.3 541 45.7 541 22.8 541L0 541Z" fill="#f89473"></path><path d="M0 452L22.8 448.7C45.7 445.3 91.3 438.7 137 434.3C182.7 430 228.3 428 274 428.5C319.7 429 365.3 432 411.2 432.8C457 433.7 503 432.3 548.8 431.8C594.7 431.3 640.3 431.7 686 432C731.7 432.3 777.3 432.7 823 429.8C868.7 427 914.3 421 937.2 418L960 415L960 541L937.2 541C914.3 541 868.7 541 823 541C777.3 541 731.7 541 686 541C640.3 541 594.7 541 548.8 541C503 541 457 541 411.2 541C365.3 541 319.7 541 274 541C228.3 541 182.7 541 137 541C91.3 541 45.7 541 22.8 541L0 541Z" fill="#f9846c"></path><path d="M0 495L22.8 492.2C45.7 489.3 91.3 483.7 137 481.7C182.7 479.7 228.3 481.3 274 482.5C319.7 483.7 365.3 484.3 411.2 481.8C457 479.3 503 473.7 548.8 475.2C594.7 476.7 640.3 485.3 686 486.2C731.7 487 777.3 480 823 475.3C868.7 470.7 914.3 468.3 937.2 467.2L960 466L960 541L937.2 541C914.3 541 868.7 541 823 541C777.3 541 731.7 541 686 541C640.3 541 594.7 541 548.8 541C503 541 457 541 411.2 541C365.3 541 319.7 541 274 541C228.3 541 182.7 541 137 541C91.3 541 45.7 541 22.8 541L0 541Z" fill="#fa7268"></path></svg>