<svg id="visual" viewBox="0 0 900 600" width="900" height="600" xmlns="http://www.w3.org/2000/svg" xmlns:xlink="http://www.w3.org/1999/xlink" version="1.1"><rect x="0" y="0" width="900" height="600" fill="#202426"></rect><g transform="translate(505.4445459256639 293.23236745522024)"><path d="M98 -114.9C124.4 -94.6 141.5 -61.3 150 -24.7C158.5 11.9 158.5 51.7 142.5 85C126.5 118.3 94.6 145.1 54.2 168.3C13.8 191.4 -35 210.8 -82.4 203.5C-129.8 196.1 -175.7 162.1 -211 115C-246.3 68 -270.9 7.9 -265.9 -51.6C-261 -111.1 -226.6 -170.1 -177.4 -186.4C-128.1 -202.7 -64.1 -176.4 -14.1 -159.5C35.8 -142.6 71.6 -135.3 98 -114.9" fill="#FA7268"></path></g></svg>