<svg id="visual" viewBox="0 0 1280 540" width="1280" height="540" xmlns="http://www.w3.org/2000/svg" xmlns:xlink="http://www.w3.org/1999/xlink" version="1.1"><path d="M0 222L23.7 211.3C47.3 200.7 94.7 179.3 142 175.8C189.3 172.3 236.7 186.7 284.2 174.8C331.7 163 379.3 125 426.8 131.3C474.3 137.7 521.7 188.3 569 206.3C616.3 224.3 663.7 209.7 711 196.2C758.3 182.7 805.7 170.3 853.2 159.7C900.7 149 948.3 140 995.8 146.2C1043.3 152.3 1090.7 173.7 1138 180.8C1185.3 188 1232.7 181 1256.3 177.5L1280 174L1280 0L1256.3 0C1232.7 0 1185.3 0 1138 0C1090.7 0 1043.3 0 995.8 0C948.3 0 900.7 0 853.2 0C805.7 0 758.3 0 711 0C663.7 0 616.3 0 569 0C521.7 0 474.3 0 426.8 0C379.3 0 331.7 0 284.2 0C236.7 0 189.3 0 142 0C94.7 0 47.3 0 23.7 0L0 0Z" fill="#202426"></path><path d="M0 314L23.7 302.3C47.3 290.7 94.7 267.3 142 268.3C189.3 269.3 236.7 294.7 284.2 290.2C331.7 285.7 379.3 251.3 426.8 255.8C474.3 260.3 521.7 303.7 569 314.5C616.3 325.3 663.7 303.7 711 290.2C758.3 276.7 805.7 271.3 853.2 257.8C900.7 244.3 948.3 222.7 995.8 219C1043.3 215.3 1090.7 229.7 1138 246.7C1185.3 263.7 1232.7 283.3 1256.3 293.2L1280 303L1280 172L1256.3 175.5C1232.7 179 1185.3 186 1138 178.8C1090.7 171.7 1043.3 150.3 995.8 144.2C948.3 138 900.7 147 853.2 157.7C805.7 168.3 758.3 180.7 711 194.2C663.7 207.7 616.3 222.3 569 204.3C521.7 186.3 474.3 135.7 426.8 129.3C379.3 123 331.7 161 284.2 172.8C236.7 184.7 189.3 170.3 142 173.8C94.7 177.3 47.3 198.7 23.7 209.3L0 220Z" fill="#414668"></path><path d="M0 374L23.7 362.2C47.3 350.3 94.7 326.7 142 341C189.3 355.3 236.7 407.7 284.2 408.7C331.7 409.7 379.3 359.3 426.8 353C474.3 346.7 521.7 384.3 569 406.8C616.3 429.3 663.7 436.7 711 428.7C758.3 420.7 805.7 397.3 853.2 366.7C900.7 336 948.3 298 995.8 304.2C1043.3 310.3 1090.7 360.7 1138 383.2C1185.3 405.7 1232.7 400.3 1256.3 397.7L1280 395L1280 301L1256.3 291.2C1232.7 281.3 1185.3 261.7 1138 244.7C1090.7 227.7 1043.3 213.3 995.8 217C948.3 220.7 900.7 242.3 853.2 255.8C805.7 269.3 758.3 274.7 711 288.2C663.7 301.7 616.3 323.3 569 312.5C521.7 301.7 474.3 258.3 426.8 253.8C379.3 249.3 331.7 283.7 284.2 288.2C236.7 292.7 189.3 267.3 142 266.3C94.7 265.3 47.3 288.7 23.7 300.3L0 312Z" fill="#a45789"></path><path d="M0 541L23.7 541C47.3 541 94.7 541 142 541C189.3 541 236.7 541 284.2 541C331.7 541 379.3 541 426.8 541C474.3 541 521.7 541 569 541C616.3 541 663.7 541 711 541C758.3 541 805.7 541 853.2 541C900.7 541 948.3 541 995.8 541C1043.3 541 1090.7 541 1138 541C1185.3 541 1232.7 541 1256.3 541L1280 541L1280 393L1256.3 395.7C1232.7 398.3 1185.3 403.7 1138 381.2C1090.7 358.7 1043.3 308.3 995.8 302.2C948.3 296 900.7 334 853.2 364.7C805.7 395.3 758.3 418.7 711 426.7C663.7 434.7 616.3 427.3 569 404.8C521.7 382.3 474.3 344.7 426.8 351C379.3 357.3 331.7 407.7 284.2 406.7C236.7 405.7 189.3 353.3 142 339C94.7 324.7 47.3 348.3 23.7 360.2L0 372Z" fill="#fa7268"></path></svg>