<svg id="visual" viewBox="0 0 960 540" width="960" height="540" xmlns="http://www.w3.org/2000/svg" xmlns:xlink="http://www.w3.org/1999/xlink" version="1.1"><path d="M0 120L32 122.7C64 125.3 128 130.7 192 127C256 123.3 320 110.7 384 100.8C448 91 512 84 576 87.7C640 91.3 704 105.7 768 105.7C832 105.7 896 91.3 928 84.2L960 77L960 0L928 0C896 0 832 0 768 0C704 0 640 0 576 0C512 0 448 0 384 0C320 0 256 0 192 0C128 0 64 0 32 0L0 0Z" fill="#202426"></path><path d="M0 217L32 225.2C64 233.3 128 249.7 192 255C256 260.3 320 254.7 384 250.2C448 245.7 512 242.3 576 238.8C640 235.3 704 231.7 768 225.3C832 219 896 210 928 205.5L960 201L960 75L928 82.2C896 89.3 832 103.7 768 103.7C704 103.7 640 89.3 576 85.7C512 82 448 89 384 98.8C320 108.7 256 121.3 192 125C128 128.7 64 123.3 32 120.7L0 118Z" fill="#23313b"></path><path d="M0 287L32 289.7C64 292.3 128 297.7 192 299.5C256 301.3 320 299.7 384 302.5C448 305.3 512 312.7 576 311.8C640 311 704 302 768 293.8C832 285.7 896 278.3 928 274.7L960 271L960 199L928 203.5C896 208 832 217 768 223.3C704 229.7 640 233.3 576 236.8C512 240.3 448 243.7 384 248.2C320 252.7 256 258.3 192 253C128 247.7 64 231.3 32 223.2L0 215Z" fill="#2d3d52"></path><path d="M0 314L32 315.8C64 317.7 128 321.3 192 322.3C256 323.3 320 321.7 384 325.3C448 329 512 338 576 338C640 338 704 329 768 322.7C832 316.3 896 312.7 928 310.8L960 309L960 269L928 272.7C896 276.3 832 283.7 768 291.8C704 300 640 309 576 309.8C512 310.7 448 303.3 384 300.5C320 297.7 256 299.3 192 297.5C128 295.7 64 290.3 32 287.7L0 285Z" fill="#414668"></path><path d="M0 363L32 363C64 363 128 363 192 361.2C256 359.3 320 355.7 384 356.5C448 357.3 512 362.7 576 364.5C640 366.3 704 364.7 768 362C832 359.3 896 355.7 928 353.8L960 352L960 307L928 308.8C896 310.7 832 314.3 768 320.7C704 327 640 336 576 336C512 336 448 327 384 323.3C320 319.7 256 321.3 192 320.3C128 319.3 64 315.7 32 313.8L0 312Z" fill="#5d4e7a"></path><path d="M0 379L32 380.8C64 382.7 128 386.3 192 384.5C256 382.7 320 375.3 384 377.2C448 379 512 390 576 391.8C640 393.7 704 386.3 768 381.8C832 377.3 896 375.7 928 374.8L960 374L960 350L928 351.8C896 353.7 832 357.3 768 360C704 362.7 640 364.3 576 362.5C512 360.7 448 355.3 384 354.5C320 353.7 256 357.3 192 359.2C128 361 64 361 32 361L0 361Z" fill="#805386"></path><path d="M0 433L32 436.7C64 440.3 128 447.7 192 445.8C256 444 320 433 384 428.5C448 424 512 426 576 427C640 428 704 428 768 427C832 426 896 424 928 423L960 422L960 372L928 372.8C896 373.7 832 375.3 768 379.8C704 384.3 640 391.7 576 389.8C512 388 448 377 384 375.2C320 373.3 256 380.7 192 382.5C128 384.3 64 380.7 32 378.8L0 377Z" fill="#a45789"></path><path d="M0 492L32 493.8C64 495.7 128 499.3 192 499.3C256 499.3 320 495.7 384 495.7C448 495.7 512 499.3 576 495.8C640 492.3 704 481.7 768 477.2C832 472.7 896 474.3 928 475.2L960 476L960 420L928 421C896 422 832 424 768 425C704 426 640 426 576 425C512 424 448 422 384 426.5C320 431 256 442 192 443.8C128 445.7 64 438.3 32 434.7L0 431Z" fill="#c65b85"></path><path d="M0 519L32 519C64 519 128 519 192 517.3C256 515.7 320 512.3 384 512.3C448 512.3 512 515.7 576 515.7C640 515.7 704 512.3 768 509.7C832 507 896 505 928 504L960 503L960 474L928 473.2C896 472.3 832 470.7 768 475.2C704 479.7 640 490.3 576 493.8C512 497.3 448 493.7 384 493.7C320 493.7 256 497.3 192 497.3C128 497.3 64 493.7 32 491.8L0 490Z" fill="#e46379"></path><path d="M0 541L32 541C64 541 128 541 192 541C256 541 320 541 384 541C448 541 512 541 576 541C640 541 704 541 768 541C832 541 896 541 928 541L960 541L960 501L928 502C896 503 832 505 768 507.7C704 510.3 640 513.7 576 513.7C512 513.7 448 510.3 384 510.3C320 510.3 256 513.7 192 515.3C128 517 64 517 32 517L0 517Z" fill="#fa7268"></path></svg>