<svg id="visual" viewBox="0 0 1280 540" width="1280" height="540" xmlns="http://www.w3.org/2000/svg" xmlns:xlink="http://www.w3.org/1999/xlink" version="1.1"><rect x="0" y="0" width="1280" height="540" fill="#202426"></rect><path d="M0 447L30.5 438.3C61 429.7 122 412.3 183 401.8C244 391.3 305 387.7 366 394.7C427 401.7 488 419.3 548.8 434.8C609.7 450.3 670.3 463.7 731.2 470.2C792 476.7 853 476.3 914 465.2C975 454 1036 432 1097 421.8C1158 411.7 1219 413.3 1249.5 414.2L1280 415L1280 541L1249.5 541C1219 541 1158 541 1097 541C1036 541 975 541 914 541C853 541 792 541 731.2 541C670.3 541 609.7 541 548.8 541C488 541 427 541 366 541C305 541 244 541 183 541C122 541 61 541 30.5 541L0 541Z" fill="#fa7268"></path><path d="M0 485L30.5 482.2C61 479.3 122 473.7 183 474.7C244 475.7 305 483.3 366 478.2C427 473 488 455 548.8 449C609.7 443 670.3 449 731.2 455C792 461 853 467 914 474.5C975 482 1036 491 1097 487.3C1158 483.7 1219 467.3 1249.5 459.2L1280 451L1280 541L1249.5 541C1219 541 1158 541 1097 541C1036 541 975 541 914 541C853 541 792 541 731.2 541C670.3 541 609.7 541 548.8 541C488 541 427 541 366 541C305 541 244 541 183 541C122 541 61 541 30.5 541L0 541Z" fill="#e34c67"></path><path d="M0 500L30.5 503.5C61 507 122 514 183 515.3C244 516.7 305 512.3 366 511.5C427 510.7 488 513.3 548.8 517.3C609.7 521.3 670.3 526.7 731.2 520.7C792 514.7 853 497.3 914 490.5C975 483.7 1036 487.3 1097 496.2C1158 505 1219 519 1249.5 526L1280 533L1280 541L1249.5 541C1219 541 1158 541 1097 541C1036 541 975 541 914 541C853 541 792 541 731.2 541C670.3 541 609.7 541 548.8 541C488 541 427 541 366 541C305 541 244 541 183 541C122 541 61 541 30.5 541L0 541Z" fill="#c62368"></path></svg>