<svg id="visual" viewBox="0 0 1920 600" width="1920" height="600" xmlns="http://www.w3.org/2000/svg" xmlns:xlink="http://www.w3.org/1999/xlink" version="1.1"><rect x="0" y="0" width="1920" height="600" fill="#202426"></rect><path d="M0 330L40 319.8C80 309.7 160 289.3 240 289.8C320 290.3 400 311.7 480 322.8C560 334 640 335 720 328.7C800 322.3 880 308.7 960 299.2C1040 289.7 1120 284.3 1200 280.7C1280 277 1360 275 1440 274.7C1520 274.3 1600 275.7 1680 289.2C1760 302.7 1840 328.3 1880 341.2L1920 354L1920 601L1880 601C1840 601 1760 601 1680 601C1600 601 1520 601 1440 601C1360 601 1280 601 1200 601C1120 601 1040 601 960 601C880 601 800 601 720 601C640 601 560 601 480 601C400 601 320 601 240 601C160 601 80 601 40 601L0 601Z" fill="#fa7268"></path><path d="M0 320L40 320.8C80 321.7 160 323.3 240 325C320 326.7 400 328.3 480 332C560 335.7 640 341.3 720 343C800 344.7 880 342.3 960 333C1040 323.7 1120 307.3 1200 302.5C1280 297.7 1360 304.3 1440 315.2C1520 326 1600 341 1680 352.5C1760 364 1840 372 1880 376L1920 380L1920 601L1880 601C1840 601 1760 601 1680 601C1600 601 1520 601 1440 601C1360 601 1280 601 1200 601C1120 601 1040 601 960 601C880 601 800 601 720 601C640 601 560 601 480 601C400 601 320 601 240 601C160 601 80 601 40 601L0 601Z" fill="#f56967"></path><path d="M0 334L40 335.8C80 337.7 160 341.3 240 350.5C320 359.7 400 374.3 480 378.5C560 382.7 640 376.3 720 375.7C800 375 880 380 960 373.8C1040 367.7 1120 350.3 1200 348C1280 345.7 1360 358.3 1440 368.3C1520 378.3 1600 385.7 1680 390.5C1760 395.3 1840 397.7 1880 398.8L1920 400L1920 601L1880 601C1840 601 1760 601 1680 601C1600 601 1520 601 1440 601C1360 601 1280 601 1200 601C1120 601 1040 601 960 601C880 601 800 601 720 601C640 601 560 601 480 601C400 601 320 601 240 601C160 601 80 601 40 601L0 601Z" fill="#ef5f67"></path><path d="M0 388L40 386C80 384 160 380 240 378.2C320 376.3 400 376.7 480 378C560 379.3 640 381.7 720 380.5C800 379.3 880 374.7 960 381C1040 387.3 1120 404.7 1200 403.8C1280 403 1360 384 1440 383.3C1520 382.7 1600 400.3 1680 401.7C1760 403 1840 388 1880 380.5L1920 373L1920 601L1880 601C1840 601 1760 601 1680 601C1600 601 1520 601 1440 601C1360 601 1280 601 1200 601C1120 601 1040 601 960 601C880 601 800 601 720 601C640 601 560 601 480 601C400 601 320 601 240 601C160 601 80 601 40 601L0 601Z" fill="#e95667"></path><path d="M0 414L40 418C80 422 160 430 240 435.5C320 441 400 444 480 437.7C560 431.3 640 415.7 720 411.8C800 408 880 416 960 416.5C1040 417 1120 410 1200 407.3C1280 404.7 1360 406.3 1440 415.7C1520 425 1600 442 1680 448C1760 454 1840 449 1880 446.5L1920 444L1920 601L1880 601C1840 601 1760 601 1680 601C1600 601 1520 601 1440 601C1360 601 1280 601 1200 601C1120 601 1040 601 960 601C880 601 800 601 720 601C640 601 560 601 480 601C400 601 320 601 240 601C160 601 80 601 40 601L0 601Z" fill="#e34c67"></path><path d="M0 463L40 465.8C80 468.7 160 474.3 240 478.7C320 483 400 486 480 487.5C560 489 640 489 720 488.3C800 487.7 880 486.3 960 483.3C1040 480.3 1120 475.7 1200 469.8C1280 464 1360 457 1440 451.5C1520 446 1600 442 1680 447C1760 452 1840 466 1880 473L1920 480L1920 601L1880 601C1840 601 1760 601 1680 601C1600 601 1520 601 1440 601C1360 601 1280 601 1200 601C1120 601 1040 601 960 601C880 601 800 601 720 601C640 601 560 601 480 601C400 601 320 601 240 601C160 601 80 601 40 601L0 601Z" fill="#dc4267"></path><path d="M0 487L40 484.3C80 481.7 160 476.3 240 477.2C320 478 400 485 480 490.7C560 496.3 640 500.7 720 501C800 501.3 880 497.7 960 495.8C1040 494 1120 494 1200 490.3C1280 486.7 1360 479.3 1440 476C1520 472.7 1600 473.3 1680 480.2C1760 487 1840 500 1880 506.5L1920 513L1920 601L1880 601C1840 601 1760 601 1680 601C1600 601 1520 601 1440 601C1360 601 1280 601 1200 601C1120 601 1040 601 960 601C880 601 800 601 720 601C640 601 560 601 480 601C400 601 320 601 240 601C160 601 80 601 40 601L0 601Z" fill="#d53867"></path><path d="M0 543L40 542.5C80 542 160 541 240 539.3C320 537.7 400 535.3 480 532.2C560 529 640 525 720 525.5C800 526 880 531 960 528.8C1040 526.7 1120 517.3 1200 513.7C1280 510 1360 512 1440 516.3C1520 520.7 1600 527.3 1680 530.7C1760 534 1840 534 1880 534L1920 534L1920 601L1880 601C1840 601 1760 601 1680 601C1600 601 1520 601 1440 601C1360 601 1280 601 1200 601C1120 601 1040 601 960 601C880 601 800 601 720 601C640 601 560 601 480 601C400 601 320 601 240 601C160 601 80 601 40 601L0 601Z" fill="#ce2e68"></path><path d="M0 566L40 562.2C80 558.3 160 550.7 240 551.8C320 553 400 563 480 566.2C560 569.3 640 565.7 720 562.3C800 559 880 556 960 557.7C1040 559.3 1120 565.7 1200 564.8C1280 564 1360 556 1440 555C1520 554 1600 560 1680 561.7C1760 563.3 1840 560.7 1880 559.3L1920 558L1920 601L1880 601C1840 601 1760 601 1680 601C1600 601 1520 601 1440 601C1360 601 1280 601 1200 601C1120 601 1040 601 960 601C880 601 800 601 720 601C640 601 560 601 480 601C400 601 320 601 240 601C160 601 80 601 40 601L0 601Z" fill="#c62368"></path></svg>