<svg id="visual" viewBox="0 0 900 600" width="900" height="600" xmlns="http://www.w3.org/2000/svg" xmlns:xlink="http://www.w3.org/1999/xlink" version="1.1"><rect x="0" y="0" width="900" height="600" fill="#202426"></rect><g transform="translate(498.2784434509123 256.36004898489773)"><path d="M108.6 -195.1C128.9 -176.4 125.4 -123.4 153.6 -85.1C181.9 -46.9 241.9 -23.4 245.7 2.2C249.5 27.8 197.1 55.7 170.1 96.1C143.1 136.5 141.5 189.5 117.4 223.4C93.3 257.3 46.7 272.2 -5.7 282C-58 291.8 -116 296.6 -167.8 278.7C-219.6 260.8 -265.3 220.1 -298.8 169.9C-332.3 119.7 -353.6 59.8 -336.3 10C-319 -39.8 -263 -79.7 -213 -101.3C-163 -123 -119 -126.4 -84.5 -136.9C-50 -147.3 -25 -164.6 9.6 -181.2C44.2 -197.8 88.3 -213.7 108.6 -195.1" fill="#FCAF3C"></path></g></svg>